<svg xmlns="http://www.w3.org/2000/svg" viewBox="0 0 512 512" role="img" aria-label="GRE2Tor">
  <defs>
    <linearGradient id="g" x1="0" y1="0" x2="1" y2="1">
      <stop offset="0" stop-color="#1f7a4d"/>
      <stop offset="1" stop-color="#145936"/>
    </linearGradient>
    <filter id="shadow" x="-20%" y="-20%" width="140%" height="140%">
      <feDropShadow dx="0" dy="18" stdDeviation="18" flood-color="#1f2a24" flood-opacity="0.20"/>
    </filter>
  </defs>
  <rect width="512" height="512" rx="112" fill="#f7f8f4"/>
  <circle cx="256" cy="256" r="184" fill="url(#g)" filter="url(#shadow)"/>
  <path d="M156 278c0-70 45-118 112-118 43 0 76 18 96 49l-51 34c-10-18-25-27-45-27-32 0-53 24-53 62 0 40 22 65 58 65 20 0 37-7 48-21v-22h-59v-49h116v93c-25 33-63 52-109 52-68 0-113-48-113-118Z" fill="#ffffff"/>
  <path d="M348 132h34v58h58v34h-58v58h-34v-58h-58v-34h58v-58Z" fill="#e4f3ea" opacity="0.95"/>
</svg>
