<svg xmlns="http://www.w3.org/2000/svg" width="1200" height="630" viewBox="0 0 1200 630" role="img" aria-label="GRE2Tor GRE Math Practice">
  <defs>
    <linearGradient id="bg" x1="0" y1="0" x2="1" y2="1">
      <stop offset="0" stop-color="#f7f8f4"/>
      <stop offset="0.55" stop-color="#e4f3ea"/>
      <stop offset="1" stop-color="#ffffff"/>
    </linearGradient>
    <linearGradient id="green" x1="0" y1="0" x2="1" y2="1">
      <stop offset="0" stop-color="#1f7a4d"/>
      <stop offset="1" stop-color="#145936"/>
    </linearGradient>
    <filter id="shadow" x="-20%" y="-20%" width="140%" height="140%">
      <feDropShadow dx="0" dy="20" stdDeviation="20" flood-color="#1f2a24" flood-opacity="0.14"/>
    </filter>
  </defs>
  <rect width="1200" height="630" fill="url(#bg)"/>
  <circle cx="1030" cy="104" r="210" fill="#d4eadc" opacity="0.65"/>
  <circle cx="88" cy="548" r="190" fill="#d4eadc" opacity="0.65"/>
  <g transform="translate(92 104)">
    <rect x="0" y="0" width="1016" height="422" rx="38" fill="#ffffff" filter="url(#shadow)"/>
    <g transform="translate(56 56)">
      <rect x="0" y="0" width="150" height="150" rx="36" fill="url(#green)"/>
      <text x="75" y="103" text-anchor="middle" font-family="Arial, Helvetica, sans-serif" font-size="86" font-weight="900" fill="#ffffff">G</text>
      <path d="M112 24h13v24h24v13h-24v24h-13V61H88V48h24V24Z" fill="#e4f3ea"/>
      <text x="190" y="40" font-family="Arial, Helvetica, sans-serif" font-size="28" font-weight="800" fill="#145936" letter-spacing="4">GRE MATH PRACTICE</text>
      <text x="190" y="128" font-family="Arial, Helvetica, sans-serif" font-size="86" font-weight="900" fill="#1f2a24">GRE2Tor</text>
      <text x="190" y="188" font-family="Arial, Helvetica, sans-serif" font-size="30" font-weight="600" fill="#65716a">Flashcards, quizzes, and review for GRE math mastery.</text>
      <g transform="translate(190 244)">
        <rect x="0" y="0" width="172" height="50" rx="25" fill="#e4f3ea"/>
        <text x="86" y="33" text-anchor="middle" font-family="Arial, Helvetica, sans-serif" font-size="22" font-weight="800" fill="#145936">698 cards</text>
        <rect x="194" y="0" width="230" height="50" rx="25" fill="#e4f3ea"/>
        <text x="309" y="33" text-anchor="middle" font-family="Arial, Helvetica, sans-serif" font-size="22" font-weight="800" fill="#145936">PDF-grounded</text>
        <rect x="446" y="0" width="210" height="50" rx="25" fill="#e4f3ea"/>
        <text x="551" y="33" text-anchor="middle" font-family="Arial, Helvetica, sans-serif" font-size="22" font-weight="800" fill="#145936">Track progress</text>
      </g>
    </g>
  </g>
  <text x="600" y="586" text-anchor="middle" font-family="Arial, Helvetica, sans-serif" font-size="24" font-weight="700" fill="#65716a">gre2tor.com</text>
</svg>
